<?xml version="1.0" encoding="UTF-8"?>
<!DOCTYPE svg PUBLIC "-//W3C//DTD SVG 1.1//EN" "http://www.w3.org/Graphics/SVG/1.1/DTD/svg11.dtd">
<!-- Creator: CorelDRAW 2021 (64-Bit) -->
<svg xmlns="http://www.w3.org/2000/svg" xml:space="preserve" width="180.132mm" height="179.07mm" version="1.1" style="shape-rendering:geometricPrecision; text-rendering:geometricPrecision; image-rendering:optimizeQuality; fill-rule:evenodd; clip-rule:evenodd"
viewBox="0 0 3742.42 3720.36"
 xmlns:xlink="http://www.w3.org/1999/xlink"
 xmlns:xodm="http://www.corel.com/coreldraw/odm/2003">
 <defs>
  <style type="text/css">
   <![CDATA[
    .fil0 {fill:#E0E0E0}
    .fil1 {fill:#F1F1F1}
   ]]>
  </style>
 </defs>
 <g id="Capa_x0020_1">
  <metadata id="CorelCorpID_0Corel-Layer"/>
  <rect class="fil0" x="-0" width="3742.42" height="3720.36"/>
  <g id="_1134337996640">
   <path class="fil1" d="M693.16 3720.36l2355.28 0c0,-210.11 0,-420.21 0,-630.32 0,-104.07 10.9,-215.66 -25.38,-290.95 -17.07,-35.41 -46.97,-74.67 -66.34,-95.04 -212.37,-223.35 -473.24,-286.17 -780.78,-334.48l-301.47 -21.08 -295.11 20.15c-118.41,18.7 -156.74,23.38 -268.67,53.41 -220.55,59.17 -463.66,172.75 -581.39,373.04 -45.09,76.7 -36.14,181.91 -36.14,287.63 0,212.55 0,425.1 0,637.65z"/>
   <path class="fil1" d="M1830.49 2108.77c251.45,0 367.72,-54.23 539.2,-216.52 195.53,-185.05 241.52,-519.94 126.02,-770.83 -34.76,-75.51 -61.26,-100.5 -102.91,-154.43 -16.87,-21.84 -20.47,-28.44 -41.26,-47.38l-93.83 -74.92c-30.03,-20.32 -59.68,-44.01 -105.94,-62.94 -196.73,-80.51 -373.45,-80.14 -569.28,0l-20.82 9.33c-12.37,6.12 -17.22,9.19 -28.14,15.76 -21.47,12.92 -32.91,21.06 -52.67,34.86 -278.73,194.73 -374.71,506.75 -253.93,842.81 41.04,114.2 135.61,212.95 226.48,287.62 93.1,76.5 247.93,136.63 377.06,136.63z"/>
  </g>
 </g>
</svg>
