<?xml version="1.0" encoding="UTF-8" standalone="no"?>
<svg
   viewBox="0 0 448 512"
   version="1.1"
   id="svg135"
   sodipodi:docname="guardar.svg"
   inkscape:version="1.2.2 (732a01da63, 2022-12-09)"
   xmlns:inkscape="http://www.inkscape.org/namespaces/inkscape"
   xmlns:sodipodi="http://sodipodi.sourceforge.net/DTD/sodipodi-0.dtd"
   xmlns="http://www.w3.org/2000/svg"
   xmlns:svg="http://www.w3.org/2000/svg">
  <defs
     id="defs139" />
  <sodipodi:namedview
     id="namedview137"
     pagecolor="#ffffff"
     bordercolor="#666666"
     borderopacity="1.0"
     inkscape:showpageshadow="2"
     inkscape:pageopacity="0.0"
     inkscape:pagecheckerboard="0"
     inkscape:deskcolor="#d1d1d1"
     showgrid="false"
     inkscape:zoom="1.1035156"
     inkscape:cx="200.26903"
     inkscape:cy="256.4531"
     inkscape:window-width="1366"
     inkscape:window-height="745"
     inkscape:window-x="-8"
     inkscape:window-y="-8"
     inkscape:window-maximized="1"
     inkscape:current-layer="svg135" />
  <!--! Font Awesome Pro 6.4.0 by @fontawesome - https://fontawesome.com License - https://fontawesome.com/license (Commercial License) Copyright 2023 Fonticons, Inc. -->
  <path
     d="M48 96V416c0 8.8 7.2 16 16 16H384c8.8 0 16-7.2 16-16V170.5c0-4.2-1.7-8.3-4.7-11.3l33.9-33.9c12 12 18.7 28.3 18.7 45.3V416c0 35.3-28.7 64-64 64H64c-35.3 0-64-28.7-64-64V96C0 60.7 28.7 32 64 32H309.5c17 0 33.3 6.7 45.3 18.7l74.5 74.5-33.9 33.9L320.8 84.7c-.3-.3-.5-.5-.8-.8V184c0 13.3-10.7 24-24 24H104c-13.3 0-24-10.7-24-24V80H64c-8.8 0-16 7.2-16 16zm80-16v80H272V80H128zm32 240a64 64 0 1 1 128 0 64 64 0 1 1 -128 0z"
     id="path133"
     style="fill:#dc2626;fill-opacity:1" />
</svg>
