<?xml version="1.0" encoding="UTF-8"?>
<!DOCTYPE svg PUBLIC "-//W3C//DTD SVG 1.1//EN" "http://www.w3.org/Graphics/SVG/1.1/DTD/svg11.dtd">
<!-- Creator: CorelDRAW 2021 (64-Bit) -->
<svg xmlns="http://www.w3.org/2000/svg" xml:space="preserve" width="73.2362mm" height="93.7187mm" version="1.1" style="shape-rendering:geometricPrecision; text-rendering:geometricPrecision; image-rendering:optimizeQuality; fill-rule:evenodd; clip-rule:evenodd"
viewBox="0 0 8909.21 11400.91"
 xmlns:xlink="http://www.w3.org/1999/xlink"
 xmlns:xodm="http://www.corel.com/coreldraw/odm/2003">
 <defs>
  <style type="text/css">
   <![CDATA[
    .fil0 {fill:white}
   ]]>
  </style>
 </defs>
 <g id="Capa_x0020_1">
  <metadata id="CorelCorpID_0Corel-Layer"/>
  <g id="_2165026895552">
   <path class="fil0" d="M323.4 11400.91c711.64,-1197.87 1403.65,-2427.56 2255.91,-3490.92 1137.77,-1461.37 2300.12,-2812.11 3819.13,-4089.02 878.94,1071.24 1779.84,2293.82 2510.78,3452.92 -644.21,-1587.62 -1672.81,-3321.93 -2837.91,-4751.41 -2275.42,2106.16 -3538.92,4037.76 -4518.74,6099.16 -453.45,954.03 -895.03,1781.1 -1229.17,2779.26z"/>
   <path class="fil0" d="M-0 8878.42c711.64,-1197.87 1403.65,-2427.56 2255.91,-3490.92 1137.77,-1461.36 2300.12,-2812.09 3819.13,-4089.01 878.94,1071.23 1779.84,2293.82 2510.78,3452.92 -644.21,-1587.62 -1672.81,-3321.94 -2837.91,-4751.42 -2275.42,2106.16 -3538.92,4037.77 -4518.73,6099.16 -453.46,954.03 -895.04,1781.11 -1229.18,2779.26z"/>
  </g>
 </g>
</svg>
