<?xml version="1.0" encoding="UTF-8" standalone="no"?>
<!-- Creator: CorelDRAW 2021 (64-Bit) -->

<svg
   xml:space="preserve"
   width="73.2362mm"
   height="93.7187mm"
   version="1.1"
   style="shape-rendering:geometricPrecision; text-rendering:geometricPrecision; image-rendering:optimizeQuality; fill-rule:evenodd; clip-rule:evenodd"
   viewBox="0 0 2756.36 3527.25"
   id="svg2"
   sodipodi:docname="logogris.svg"
   inkscape:version="1.3.2 (091e20e, 2023-11-25, custom)"
   xmlns:inkscape="http://www.inkscape.org/namespaces/inkscape"
   xmlns:sodipodi="http://sodipodi.sourceforge.net/DTD/sodipodi-0.dtd"
   xmlns="http://www.w3.org/2000/svg"
   xmlns:svg="http://www.w3.org/2000/svg"><sodipodi:namedview
   id="namedview2"
   pagecolor="#505050"
   bordercolor="#eeeeee"
   borderopacity="1"
   inkscape:showpageshadow="0"
   inkscape:pageopacity="0"
   inkscape:pagecheckerboard="0"
   inkscape:deskcolor="#505050"
   inkscape:document-units="mm"
   inkscape:zoom="2.6509518"
   inkscape:cx="138.44084"
   inkscape:cy="146.92836"
   inkscape:window-width="1920"
   inkscape:window-height="1057"
   inkscape:window-x="1592"
   inkscape:window-y="-8"
   inkscape:window-maximized="1"
   inkscape:current-layer="_2165027788240" />
 <defs
   id="defs1">
  <style
   type="text/css"
   id="style1">
   <![CDATA[
    .fil0 {fill:#B1B1B1}
   ]]>
  </style>
 </defs>
 <g
   id="Capa_x0020_1"
   inkscape:label="Capa 1">
  <metadata
   id="CorelCorpID_0Corel-Layer" />
  <g
   id="_2165027788240">
   <path
   class="fil0"
   d="M100.05 3527.25c220.17,-370.6 434.27,-751.04 697.94,-1080.03 352.01,-452.12 711.62,-870.02 1181.57,-1265.07 271.93,331.42 550.65,709.67 776.79,1068.28 -199.31,-491.18 -517.54,-1027.75 -878,-1470 -703.98,651.61 -1094.88,1249.21 -1398.02,1886.98 -140.29,295.16 -276.91,551.04 -380.28,859.86z"
   id="path1"
   style="fill:#d62429;fill-opacity:1" />
   <path
   class="fil0"
   d="M-0 2746.83c220.17,-370.6 434.27,-751.04 697.94,-1080.03 352.01,-452.12 711.62,-870.01 1181.57,-1265.07 271.93,331.42 550.65,709.67 776.79,1068.28 -199.31,-491.18 -517.54,-1027.75 -878,-1470.01 -703.98,651.61 -1094.88,1249.22 -1398.02,1886.98 -140.29,295.16 -276.91,551.04 -380.29,859.86z"
   id="path2"
   style="fill:#008e4f;fill-opacity:1" />
  </g>
 </g>
</svg>
