<?xml version="1.0" encoding="UTF-8" standalone="no"?>
<!-- Creator: CorelDRAW 2021 (64-Bit) -->

<svg
   xml:space="preserve"
   width="73.2362mm"
   height="93.7187mm"
   version="1.1"
   style="shape-rendering:geometricPrecision; text-rendering:geometricPrecision; image-rendering:optimizeQuality; fill-rule:evenodd; clip-rule:evenodd"
   viewBox="0 0 4247.99 5436.05"
   id="svg2"
   sodipodi:docname="logoverde.svg"
   inkscape:version="1.3.2 (091e20e, 2023-11-25, custom)"
   xmlns:inkscape="http://www.inkscape.org/namespaces/inkscape"
   xmlns:sodipodi="http://sodipodi.sourceforge.net/DTD/sodipodi-0.dtd"
   xmlns="http://www.w3.org/2000/svg"
   xmlns:svg="http://www.w3.org/2000/svg"><sodipodi:namedview
   id="namedview2"
   pagecolor="#505050"
   bordercolor="#eeeeee"
   borderopacity="1"
   inkscape:showpageshadow="0"
   inkscape:pageopacity="0"
   inkscape:pagecheckerboard="0"
   inkscape:deskcolor="#505050"
   inkscape:document-units="mm"
   showgrid="false"
   inkscape:zoom="2.312172"
   inkscape:cx="138.61425"
   inkscape:cy="177.1062"
   inkscape:window-width="1920"
   inkscape:window-height="1057"
   inkscape:window-x="1592"
   inkscape:window-y="-8"
   inkscape:window-maximized="1"
   inkscape:current-layer="_2165026655632" />
 <defs
   id="defs1">
  <style
   type="text/css"
   id="style1">
   <![CDATA[
    .fil0 {fill:#B71C1C}
   ]]>
  </style>
 </defs>
 <g
   id="Capa_x0020_1"
   inkscape:label="Capa 1">
  <metadata
   id="CorelCorpID_0Corel-Layer" />
  <g
   id="_2165026655632">
   <path
   class="fil0"
   d="M154.2 5436.05c339.32,-571.15 669.27,-1157.48 1075.64,-1664.5 542.5,-696.8 1096.71,-1340.84 1820.99,-1949.68 419.08,510.78 848.64,1093.71 1197.16,1646.38 -307.17,-756.99 -797.61,-1583.92 -1353.14,-2265.51 -1084.94,1004.23 -1687.39,1925.24 -2154.57,2908.13 -216.21,454.89 -426.76,849.24 -586.08,1325.17z"
   id="path1"
   style="fill:#008e4f;fill-opacity:1" />
   <path
   class="fil0"
   d="M-0 4233.31c339.32,-571.15 669.27,-1157.48 1075.64,-1664.5 542.5,-696.79 1096.71,-1340.83 1820.99,-1949.67 419.08,510.77 848.64,1093.71 1197.16,1646.38 -307.17,-756.99 -797.61,-1583.93 -1353.14,-2265.52 -1084.94,1004.23 -1687.39,1925.24 -2154.57,2908.13 -216.22,454.89 -426.76,849.25 -586.08,1325.17z"
   id="path2"
   style="fill:#008e4f;fill-opacity:1" />
  </g>
 </g>
</svg>
