<?xml version="1.0" encoding="UTF-8" standalone="no"?>
<svg
   width="95.825"
   height="95.825"
   viewBox="0 0 95.825 95.825"
   version="1.1"
   id="svg1"
   sodipodi:docname="icono.svg"
   inkscape:version="1.3.2 (091e20e, 2023-11-25, custom)"
   xmlns:inkscape="http://www.inkscape.org/namespaces/inkscape"
   xmlns:sodipodi="http://sodipodi.sourceforge.net/DTD/sodipodi-0.dtd"
   xmlns="http://www.w3.org/2000/svg"
   xmlns:svg="http://www.w3.org/2000/svg">
  <sodipodi:namedview
     id="namedview1"
     pagecolor="#505050"
     bordercolor="#eeeeee"
     borderopacity="1"
     inkscape:showpageshadow="0"
     inkscape:pageopacity="0"
     inkscape:pagecheckerboard="0"
     inkscape:deskcolor="#505050"
     inkscape:zoom="9.6112709"
     inkscape:cx="47.860476"
     inkscape:cy="47.912498"
     inkscape:window-width="1600"
     inkscape:window-height="1177"
     inkscape:window-x="-8"
     inkscape:window-y="-8"
     inkscape:window-maximized="1"
     inkscape:current-layer="icn_avatar" />
  <defs
     id="defs1">
    <clipPath
       id="clip-path">
      <circle
         id="Ellipse_16"
         data-name="Ellipse 16"
         cx="47.912"
         cy="47.912"
         r="47.912"
         fill="none"
         stroke="#6a7074"
         stroke-width="1" />
    </clipPath>
  </defs>
  <g
     id="Group_37562"
     data-name="Group 37562"
     transform="translate(-910.122 -320.825)">
    <g
       id="icn_avatar"
       transform="translate(910.122 320.825)">
      <g
         id="Mask_Group_8"
         data-name="Mask Group 8"
         transform="translate(0 0)"
         clip-path="url(#clip-path)">
        <rect
           id="Image_29"
           data-name="Image 29"
           width="102.67"
           height="102.777"
           fill="#ff771a"
           style="fill:#d62429;fill-opacity:1" />
      </g>
    </g>
    <path
       id="Exclusion_1"
       data-name="Exclusion 1"
       d="M31.734,63.056h-.207A31.527,31.527,0,0,1,9.234,9.236,31.323,31.323,0,0,1,31.527,0h.209a31.53,31.53,0,0,1,22.15,53.757A31.327,31.327,0,0,1,31.734,63.056ZM31.67,39.568a4.972,4.972,0,0,0,0,9.944h.013a4.972,4.972,0,1,0,0-9.944Zm0-26.291a5.362,5.362,0,0,0-5.241,5.254V32.625a5.226,5.226,0,0,0,1.539,3.715,5.569,5.569,0,0,0,3.7,1.536h.013a5.258,5.258,0,0,0,5.252-5.252V18.531a5.259,5.259,0,0,0-5.252-5.254Z"
       transform="translate(926.527 337.417)"
       fill="#fff" />
  </g>
</svg>
